# xmcd
#
# Track frame offsets:
#	150
#	21152
#	38207
#
# Disc length: 786 seconds
#
# Revision: 0
# Processed by: cddbd v1.5.2PL0 Copyright (c) Steve Scherf et al.
# Submitted via: audiograbber 1.83.01
#
DISCID=1c031003
DTITLE=Kool Moe Dee - Rise 'N' Shine
DYEAR=1991
DGENRE=Rap
TTITLE0=Kool Moe Dee, KRS-One, Chuck D - Rise 'N' Shine (Long Version)
TTITLE1=Kool Moe Dee, KRS-One, Chuck D - Rise 'N' Shine (Short Version)
TTITLE2=Kool Moe Dee - Rise 'N' Shine (Instrumental)
EXTD=www.RapMusicGuide.com
EXTT0=
EXTT1=
EXTT2=
PLAYORDER=
